<svg width="125" height="108" viewBox="0 0 125 108" fill="none" xmlns="http://www.w3.org/2000/svg">
<path d="M122.504 81.2871L78.8975 8.99463C77.1342 6.23715 74.7049 3.96783 71.8334 2.39589C68.9619 0.823952 65.7408 0 62.4669 0C59.1931 0 55.9719 0.823952 53.1004 2.39589C50.229 3.96783 47.7996 6.23715 46.0363 8.99463L2.42993 81.2871C0.889516 83.854 0.0522689 86.7811 0.00236896 89.7741C-0.0475309 92.767 0.691675 95.7204 2.14567 98.3372C3.8267 101.283 6.2599 103.729 9.19661 105.427C12.1333 107.124 15.4682 108.012 18.8605 107.999H106.073C109.443 108.035 112.763 107.182 115.698 105.525C118.633 103.869 121.078 101.468 122.788 98.5645C124.285 95.9205 125.048 92.9247 124.998 89.8871C124.948 86.8495 124.087 83.8805 122.504 81.2871ZM62.4669 85.2654C61.3425 85.2654 60.2433 84.9321 59.3083 84.3076C58.3734 83.6831 57.6447 82.7955 57.2144 81.757C56.7841 80.7185 56.6715 79.5758 56.8908 78.4733C57.1102 77.3708 57.6517 76.3582 58.4468 75.5633C59.2419 74.7685 60.2549 74.2272 61.3578 74.0079C62.4606 73.7886 63.6037 73.9012 64.6426 74.3313C65.6814 74.7615 66.5694 75.4899 67.1941 76.4246C67.8188 77.3592 68.1522 78.458 68.1522 79.5821C68.1522 81.0894 67.5532 82.535 66.487 83.6008C65.4208 84.6667 63.9748 85.2654 62.4669 85.2654ZM68.1522 62.532C68.1522 64.0393 67.5532 65.4849 66.487 66.5507C65.4208 67.6165 63.9748 68.2153 62.4669 68.2153C60.9591 68.2153 59.513 67.6165 58.4468 66.5507C57.3806 65.4849 56.7816 64.0393 56.7816 62.532V39.7985C56.7816 38.2912 57.3806 36.8456 58.4468 35.7797C59.513 34.7139 60.9591 34.1151 62.4669 34.1151C63.9748 34.1151 65.4208 34.7139 66.487 35.7797C67.5532 36.8456 68.1522 38.2912 68.1522 39.7985V62.532Z" fill="#C90000"/>
</svg>
