<svg width="93" height="93" viewBox="0 0 93 93" fill="none" xmlns="http://www.w3.org/2000/svg">
<path d="M23.1002 36.2803C23.7475 35.3199 24.0888 34.1861 24.0793 33.0279C24.0793 30.287 22.3252 28.0628 20.1629 28.0628C18.0007 28.0628 16.2466 30.2844 16.2466 33.0279C16.2466 35.2961 17.453 37.1871 19.0908 37.7813C18.4863 39.6723 11.9893 58.1173 15.1978 64.635C18.4063 71.1528 42.4416 68.3834 44.2396 65.4462C42.8601 60.202 24.4564 44.6348 23.1002 36.2803ZM69.8947 36.2803C69.2474 35.3199 68.9061 34.1861 68.9156 33.0279C68.9156 30.287 70.6697 28.0628 72.8319 28.0628C74.9942 28.0628 76.7483 30.2844 76.7483 33.0279C76.7483 35.2961 75.5418 37.1871 73.904 37.7813C74.5085 39.6723 81.0056 58.1173 77.7971 64.635C74.5886 71.1528 50.5533 68.3834 48.7553 65.4462C50.1348 60.202 68.5384 44.6348 69.8947 36.2803Z" fill="#EF491C"/>
<path d="M85.25 93V90.4167C85.25 86.3058 83.617 82.3633 80.7102 79.4565C77.8033 76.5497 73.8609 74.9167 69.75 74.9167H23.25C19.1391 74.9167 15.1967 76.5497 12.2898 79.4565C9.38303 82.3633 7.75 86.3058 7.75 90.4167V93H85.25ZM69.1042 52.7904C72.1732 53.3277 75.8699 53.1237 75.3455 55.1593C74.1081 59.9488 68.6185 58.1741 67.6497 58.2283C66.681 58.28 69.1042 52.7904 69.1042 52.7904Z" fill="#292F33"/>
<path d="M69.9101 53.3329C74.7539 53.9787 76.4744 54.4076 72.9223 55.8077C70.928 56.5957 67.1279 68.2155 64.3172 66.4459C61.5091 64.6763 69.9101 53.3329 69.9101 53.3329Z" fill="#66757F"/>
<path d="M23.9087 52.7904C20.8397 53.3277 17.143 53.1237 17.6674 55.1593C18.9048 59.9488 24.3944 58.1741 25.3631 58.2283C26.3319 58.28 23.9087 52.7904 23.9087 52.7904Z" fill="#292F33"/>
<path d="M23.1028 53.3329C18.259 53.9787 16.5385 54.4076 20.0906 55.8077C22.0849 56.5957 25.885 68.2155 28.6957 66.4459C31.5064 64.6763 23.1028 53.3329 23.1028 53.3329Z" fill="#66757F"/>
<path d="M46.5 72.3333C60.7674 72.3333 72.3334 57.8759 72.3334 40.0417C72.3334 22.2075 60.7674 7.75 46.5 7.75C32.2327 7.75 20.6667 22.2075 20.6667 40.0417C20.6667 57.8759 32.2327 72.3333 46.5 72.3333Z" fill="#D5AB88"/>
<path d="M49.0834 52.9583C49.0834 53.3009 48.9473 53.6295 48.705 53.8717C48.4628 54.1139 48.1343 54.25 47.7917 54.25H45.2084C44.8658 54.25 44.5372 54.1139 44.295 53.8717C44.0528 53.6295 43.9167 53.3009 43.9167 52.9583C43.9167 52.6158 44.0528 52.2872 44.295 52.045C44.5372 51.8028 44.8658 51.6667 45.2084 51.6667H47.7917C48.1343 51.6667 48.4628 51.8028 48.705 52.045C48.9473 52.2872 49.0834 52.6158 49.0834 52.9583Z" fill="#963B22"/>
<path fill-rule="evenodd" clip-rule="evenodd" d="M19.7806 38.2023C20.1629 38.5821 22.0746 39.7291 22.4569 40.8735C22.8392 42.0179 23.6065 48.5047 25.9005 50.4137C28.2668 52.3822 37.1897 51.6486 38.8998 50.7987C42.7232 48.8922 43.1933 43.5705 43.8702 40.8735C44.2525 39.3467 46.5465 39.3468 46.5465 39.3468C46.5465 39.3468 48.8405 39.3467 49.2228 40.8735C49.8997 43.5705 50.3698 48.8922 54.1932 50.7961C55.9033 51.6486 64.8261 52.3822 67.1977 50.4163C69.4891 48.5073 70.2537 42.0205 70.6361 40.8735C71.0132 39.7291 72.9301 38.5847 73.3098 38.2023C73.6922 37.82 73.6922 36.2933 73.3098 35.9109C72.5452 35.1488 63.5242 34.4668 53.8108 35.5286C51.8733 35.7404 51.1371 36.2907 46.5465 36.2907C41.9585 36.2907 41.2197 35.7378 39.2822 35.5286C29.5714 34.4668 20.5478 35.1463 19.7832 35.9109C19.3982 36.2933 19.3982 37.8226 19.7806 38.2023Z" fill="#66757F"/>
<path d="M20.2999 21.6871C20.2999 21.6871 23.8106 -1.30714 35.6242 0.0594412C44.6969 1.10827 48.2567 2.19069 55.8594 0.310024C60.8892 -0.935142 66.3607 3.24469 69.6596 11.6224C70.9775 15.0167 72.0345 18.5066 72.8216 22.0617C72.8216 22.0617 82.9948 21.0671 83.5812 26.536C84.1702 32.0049 72.3334 38.719 42.5346 38.719C25.8334 38.7164 8.60252 32.6275 7.78361 27.5306C6.96469 22.4337 20.2999 21.6871 20.2999 21.6871Z" fill="#292F33"/>
<path d="M20.9896 18.4708C20.9896 18.4708 20.2921 21.3228 19.9408 23.3042C19.5894 25.2882 20.5246 26.6522 26.9287 28.0162C35.4201 29.8246 54.5161 29.8039 65.8311 27.0268C70.3752 25.9108 73.2866 25.1668 72.9378 22.9374C72.5064 20.1784 72.4315 20.1836 71.5403 17.2334C71.5403 17.2334 67.7247 18.5302 62.6872 19.7134C55.8155 21.3254 36.9468 22.0668 27.8613 20.0854C23.0175 19.0262 20.9896 18.4708 20.9896 18.4708ZM20.6383 54.5161C19.7238 54.8907 28.1842 58.0759 39.9616 58.2826C52.2867 58.4996 56.0661 59.2901 53.2554 62.0517C50.2949 64.9579 51.0544 69.5278 51.2637 70.8815C51.4729 72.2351 56.5518 75.8311 56.9677 77.4948C57.3836 79.1611 53.7928 92.8941 53.7928 92.8941L31.2428 92.2431C24.6166 69.3961 23.7951 70.2822 20.6383 57.0994C20.0157 54.4954 20.6383 54.5161 20.6383 54.5161Z" fill="#66757F"/>
<path d="M18.0549 54.622C17.1404 54.9992 25.6009 58.1818 37.3783 58.3885C49.7034 58.6055 53.4828 59.396 50.6721 62.1576L51.2069 93L28.6569 92.349C22.0307 69.502 21.2092 70.3881 18.0524 57.2053C17.4324 54.6013 18.0549 54.622 18.0549 54.622Z" fill="#292F33"/>
<path d="M72.4677 54.5161C73.3822 54.8907 64.9217 58.0759 53.1469 58.2826C40.8218 58.4996 37.0424 59.2901 39.8531 62.0517C42.8136 64.9579 47.5411 69.5227 47.3344 70.8763C47.1252 72.23 36.5567 75.8312 36.1408 77.4948C35.7249 79.1611 39.3157 92.8941 39.3157 92.8941L61.8657 92.2431C68.4919 69.3961 69.3134 70.2822 72.4677 57.0994C73.0902 54.4954 72.4677 54.5161 72.4677 54.5161Z" fill="#66757F"/>
<path d="M74.8082 54.5161C75.7227 54.8907 67.2623 58.0759 55.4874 58.2826C43.1623 58.4996 39.3829 59.2901 42.1936 62.0517C45.1541 64.9579 49.8842 69.5227 49.6749 70.8763C49.4657 72.23 38.8973 75.8312 38.4813 77.4948C38.0654 79.1611 41.6563 92.8941 41.6563 92.8941L64.0202 92.9199C70.6464 70.0729 71.6539 70.2822 74.8108 57.0994C75.4308 54.4954 74.8082 54.5161 74.8082 54.5161Z" fill="#292F33"/>
</svg>
