<svg width="240" height="240" viewBox="0 0 240 240" fill="none" xmlns="http://www.w3.org/2000/svg">
<circle cx="120" cy="120" r="120" fill="#9BA4C1"/>
<path d="M130.179 35.4705C133.802 36.0155 136.922 39.0217 137.602 42.6208C140.314 42.708 142.535 44.6766 144.659 46.3661C146.782 48.0556 149.481 49.6405 152.068 48.8208L151.083 41.3848C150.863 39.7214 150.625 38.008 149.777 36.5605C148.565 34.496 146.32 33.3057 144.188 32.2179C141.654 30.9273 139.076 29.6193 136.279 29.1092C133.482 28.5991 130.384 28.9915 128.195 30.8052C127.155 31.6685 126.344 33.2185 127.116 34.3281C127.757 35.2568 129.067 35.3026 130.179 35.4705Z" fill="#42DABA"/>
<path d="M157.053 37.7377C159.292 37.9405 161.326 39.6082 161.964 41.762C162.056 42.0716 162.117 42.4247 161.953 42.706C161.735 43.0809 161.23 43.1507 160.798 43.1354C160.097 43.1237 159.407 42.9609 158.775 42.658C157.94 42.2342 157.285 41.5259 156.926 40.6611C156.576 39.7929 156.547 38.8279 156.846 37.9405" fill="#42DABA"/>
<path d="M174.954 123.743C172.503 123.218 169.855 120.857 168.468 118.871C167.555 117.561 166.923 116.056 165.896 114.831C164.76 113.477 163.208 112.542 161.643 111.723C154.802 108.157 147.21 106.272 139.496 106.225C134.441 106.194 126.821 105.51 123.913 100.251C123.432 99.3816 123.863 98.3199 124.062 97.3433C124.26 96.3666 123.92 95.0325 122.926 94.9823C121.029 94.8864 120.589 97.1492 118.2 96.8724C116.473 96.6718 114.138 95.39 113.554 93.6809C113.022 92.1243 113.565 88.6451 113.68 86.9904C113.894 83.9297 125.766 84.1216 127.914 84.3003C127.51 86.6373 129.871 90.2888 132.485 88.1633C134.75 86.3234 131.944 81.2396 133.917 78.6977C136.492 75.3754 139.797 72.0596 142.701 68.9422C143.518 68.0637 144.34 67.183 145.277 66.4352C147.324 64.8068 149.831 63.8868 152.092 62.5701C147.675 55.738 139.668 51.378 131.535 51.3758C130.907 51.3758 130.22 51.4216 129.758 51.8467C129.15 52.4047 129.185 53.3574 129.272 54.1771C129.509 56.4356 129.788 58.6919 130.109 60.9394L123.155 58.1774C121.435 57.495 119.63 56.7473 118.509 55.2736C117.391 53.7999 117.319 51.3649 118.854 50.3337C121.016 48.8797 124.299 51.1621 126.436 49.6732C127.722 48.775 128.055 46.7934 129.505 46.1939C130.802 45.6598 132.206 46.5318 133.577 46.837C134.946 47.1422 136.884 46.037 136.222 44.7987C132.463 42.2939 128.173 39.6735 123.741 40.5499C121.511 40.9903 119.545 42.2874 117.371 42.9523C112.128 44.5589 106.556 42.3506 101.52 40.1793C100.753 39.8479 99.9595 39.5013 99.3948 38.8844C98.7539 38.1846 98.4836 37.221 97.9364 36.445C96.2011 33.9881 89.744 33.9946 90.1669 33.8747C89.6241 33.829 88.5733 35.0541 88.0305 35.0062C87.5553 34.9647 82.7266 39.9046 81.8437 40.4976C78.8854 42.4901 75.5544 43.3076 71.9508 44.3714C68.4083 45.4178 64.3819 49.4574 69.8951 49.7299C74.412 49.9522 80.9847 48.3369 85.3818 47.3253C86.1928 47.14 87.0778 46.9395 87.8256 47.3035C88.5581 47.6589 88.9526 48.4546 89.2644 49.2067C92.0123 55.8976 92.3566 63.334 90.2388 70.2502C89.5151 72.5872 88.5036 75.0549 89.2164 77.3963C90.2454 80.7709 94.492 82.5323 95.1264 86.0029C95.3989 87.4962 94.9411 89.1225 95.5602 90.5068C97.0143 93.7528 101.451 92.3009 103.955 91.721C103.942 91.7254 104.326 96.7743 104.67 97.328C105.887 99.2791 109.07 99.7761 111.075 100.336C118.472 102.405 124.979 105.551 131.646 109.353C133.259 110.273 134.946 111.263 135.886 112.867C138.404 117.162 134.233 122.245 133.695 127.194C133.551 128.601 133.709 130.023 134.158 131.365C134.607 132.706 135.336 133.937 136.298 134.974C137.394 136.143 138.766 137.03 139.856 138.21C142.395 140.956 143.106 144.994 142.705 148.715C142.306 152.436 140.937 155.97 139.79 159.532C137.646 166.202 136.256 173.091 135.648 180.07C135.467 182.147 136.583 182.688 138.445 182.117C141.098 181.306 140.621 178.801 141.292 176.826C143.222 171.136 149.36 166.068 154.595 163.589C156.921 162.488 159.473 161.653 161.278 159.82C163.825 157.234 164.383 153.162 166.938 150.583C169.113 148.386 172.416 147.608 174.611 145.428C176.992 143.062 177.823 139.596 179.368 136.714C180.532 134.545 182.76 132.773 183.743 130.59C186.684 124.053 178.738 124.554 174.954 123.743Z" fill="#42DABA"/>
<path d="M120 16.6854C63.0104 16.6854 16.8119 62.8839 16.8119 119.874C16.8119 176.863 63.0104 223.062 120 223.062C176.99 223.062 223.188 176.863 223.188 119.874C223.188 62.8839 176.99 16.6854 120 16.6854ZM154.409 207.826C151.97 206.86 149.284 206.52 146.705 207.008C142.914 207.725 138.935 209.988 135.465 208.299C132.027 206.627 131.334 201.645 133.213 198.314C135.092 194.983 138.722 193.047 142.317 191.746C139.873 189.769 136.13 190.686 133.597 192.55C131.064 194.412 129.173 197.054 126.592 198.848C124.011 200.643 120.174 201.355 117.894 199.191C117.818 200.976 115.732 201.998 113.944 201.992C112.156 201.985 110.384 201.355 108.614 201.593C106.222 201.911 104.273 203.793 103.214 205.96C102.22 207.996 101.88 210.276 101.59 212.528C58.2842 203.936 25.5319 165.664 25.5319 119.874C25.5319 67.7824 67.9111 25.4054 120 25.4054C138.859 25.4054 156.428 30.9818 171.191 40.5411C170.905 42.0322 170.801 43.5343 171.056 45.0341C171.64 48.4872 174.766 51.7768 178.223 51.2079L178.856 48.6987C183.22 49.5772 186.939 53.1045 188.047 57.4165C187.392 57.8522 186.875 58.4666 186.559 59.1868C186.242 59.907 186.139 60.7029 186.261 61.48C191.567 62.4763 194.985 67.9263 195.884 73.2499C196.782 78.5734 195.833 84.019 195.895 89.4189C195.99 97.91 199.422 107.243 207.161 110.737C209.312 111.709 211.88 112.097 214.065 111.361C214.318 114.168 214.468 117.005 214.468 119.876C214.468 159.824 189.527 194.037 154.409 207.826Z" fill="#42DABA"/>
</svg>
