<svg width="152" height="152" viewBox="0 0 152 152" fill="none" xmlns="http://www.w3.org/2000/svg">
<path d="M20.4615 0C18.1358 0 15.9053 0.923899 14.2608 2.56845C12.6162 4.213 11.6923 6.44349 11.6923 8.76923C11.6923 10.1372 12.0606 11.4585 12.6043 12.6043C11.4096 12.0191 10.0995 11.7075 8.76923 11.6923C6.44349 11.6923 4.213 12.6162 2.56845 14.2608C0.923899 15.9053 0 18.1358 0 20.4615C0 22.7873 0.923899 25.0178 2.56845 26.6623C4.213 28.3069 6.44349 29.2308 8.76923 29.2308C12.1015 29.2308 14.9603 27.4009 16.4452 24.6649L32.3351 40.7418C28.1383 46.9494 25.3343 53.9914 24.1154 61.3846C22.1978 73.0302 24.4603 84.0151 29.2308 93.5385V99.3846C29.2308 103.535 30.7858 107.335 33.2529 110.346L16.4394 127.154C15.661 125.812 14.5416 124.699 13.1945 123.929C11.8475 123.159 10.3208 122.759 8.76923 122.769C6.44349 122.769 4.213 123.693 2.56845 125.338C0.923899 126.982 0 129.213 0 131.538C0 133.864 0.923899 136.095 2.56845 137.739C4.213 139.384 6.44349 140.308 8.76923 140.308C10.1372 140.308 11.4585 139.939 12.6043 139.396C12.0087 140.587 11.6965 141.899 11.6923 143.231C11.6923 145.557 12.6162 147.787 14.2608 149.432C15.9053 151.076 18.1358 152 20.4615 152C22.7873 152 25.0178 151.076 26.6623 149.432C28.3069 147.787 29.2308 145.557 29.2308 143.231C29.2308 139.963 27.4945 137.063 24.8462 135.555L43.8462 116.555C44.8049 116.718 45.7637 116.923 46.7692 116.923C46.7692 126.54 54.6908 134.462 64.3077 134.462H87.6923C97.3092 134.462 105.231 126.54 105.231 116.923C106.236 116.923 107.195 116.718 108.154 116.555L127.154 135.555C124.506 137.063 122.769 139.963 122.769 143.231C122.769 145.557 123.693 147.787 125.338 149.432C126.982 151.076 129.213 152 131.538 152C133.864 152 136.095 151.076 137.739 149.432C139.384 147.787 140.308 145.557 140.308 143.231C140.308 141.863 139.939 140.542 139.396 139.396C140.536 139.939 141.863 140.308 143.231 140.308C145.557 140.308 147.787 139.384 149.432 137.739C151.076 136.095 152 133.864 152 131.538C152 129.213 151.076 126.982 149.432 125.338C147.787 123.693 145.557 122.769 143.231 122.769C139.963 122.769 137.063 124.506 135.555 127.154L118.747 110.346C121.319 107.27 122.741 103.394 122.769 99.3846V93.7197C126.376 86.5991 128.615 78.6717 128.615 70.1538C128.606 59.6525 125.421 49.3996 119.478 40.7418L135.555 24.6649C137.04 27.4009 139.898 29.2308 143.231 29.2308C145.557 29.2308 147.787 28.3069 149.432 26.6623C151.076 25.0178 152 22.7873 152 20.4615C152 18.1358 151.076 15.9053 149.432 14.2608C147.787 12.6162 145.557 11.6923 143.231 11.6923C141.863 11.6923 140.542 12.0606 139.396 12.6043C139.939 11.4643 140.308 10.1372 140.308 8.76923C140.308 6.44349 139.384 4.213 137.739 2.56845C136.095 0.923899 133.864 0 131.538 0C129.213 0 126.982 0.923899 125.338 2.56845C123.693 4.213 122.769 6.44349 122.769 8.76923C122.769 12.1015 124.599 14.9603 127.335 16.4452L111.808 31.7914C102.013 22.5925 89.0686 17.4925 75.6317 17.5385C73.6908 17.5385 71.7732 17.6729 69.7855 17.9068C58.6507 19.1691 48.2146 23.9701 40.0111 31.6043L24.6649 16.4394C27.4009 14.9662 29.2308 12.1015 29.2308 8.76923C29.2308 6.44349 28.3069 4.213 26.6623 2.56845C25.0178 0.923899 22.7873 0 20.4615 0ZM75.8188 29.2308C81.2139 29.1859 86.5643 30.2124 91.5597 32.2508C96.5552 34.2892 101.096 37.299 104.92 41.1056C108.743 44.9122 111.773 49.44 113.834 54.4264C115.894 59.4128 116.944 64.7586 116.923 70.1538C116.923 77.3446 115.076 84.0151 111.808 89.8846L111.077 91.3462V99.3846C111.077 102.694 108.54 105.231 105.231 105.231H93.5385V116.923C93.5385 120.232 91.0012 122.769 87.6923 122.769H64.3077C60.9988 122.769 58.4615 120.232 58.4615 116.923V105.231H46.7692C43.4603 105.231 40.9231 102.694 40.9231 99.3846V91.3462L40.1923 89.8846C35.6747 81.7728 34.0638 72.3611 35.6265 63.2086C38.5028 45.5825 53.4806 31.6043 71.2529 29.5932C72.8022 29.4178 74.2871 29.2308 75.8129 29.2308H75.8188ZM58.4615 70.1538C55.3605 70.1538 52.3866 71.3857 50.1938 73.5784C48.0011 75.7712 46.7692 78.7452 46.7692 81.8462C46.7692 84.9471 48.0011 87.9211 50.1938 90.1139C52.3866 92.3066 55.3605 93.5385 58.4615 93.5385C61.5625 93.5385 64.5365 92.3066 66.7292 90.1139C68.922 87.9211 70.1538 84.9471 70.1538 81.8462C70.1538 78.7452 68.922 75.7712 66.7292 73.5784C64.5365 71.3857 61.5625 70.1538 58.4615 70.1538ZM93.5385 70.1538C90.4375 70.1538 87.4635 71.3857 85.2708 73.5784C83.078 75.7712 81.8462 78.7452 81.8462 81.8462C81.8462 84.9471 83.078 87.9211 85.2708 90.1139C87.4635 92.3066 90.4375 93.5385 93.5385 93.5385C96.6395 93.5385 99.6134 92.3066 101.806 90.1139C103.999 87.9211 105.231 84.9471 105.231 81.8462C105.231 78.7452 103.999 75.7712 101.806 73.5784C99.6134 71.3857 96.6395 70.1538 93.5385 70.1538ZM70.1538 99.3846V111.077H81.8462V99.3846H70.1538Z" fill="#42DABA"/>
</svg>
