<svg width="208" height="215" viewBox="0 0 208 215" fill="none" xmlns="http://www.w3.org/2000/svg">
<path d="M104 107.5C103.508 107.805 100.775 109.078 95.8011 111.317C90.8276 113.557 87.947 114.982 87.1591 115.593C90.9015 121.396 94.4962 126.384 97.9432 130.558C97.0568 132.594 95.7765 137.327 94.1023 144.759C92.428 152.19 90.6307 160.741 88.7102 170.412C86.7898 180.083 85.7803 185.122 85.6818 185.529C85.5833 185.224 84.5492 184.817 82.5795 184.308C80.6098 183.799 78.517 182.857 76.3011 181.483C74.0852 180.108 72.6326 178.2 71.9432 175.756C70.3674 170.259 69.0379 162.013 67.9545 151.019C66.8712 140.025 66.0341 130.227 65.4432 121.625C64.8523 113.023 64.2121 108.263 63.5227 107.347C62.8333 107.653 61.2822 108.467 58.8693 109.79C56.4564 111.114 53.9697 112.285 51.4091 113.303C48.4545 114.422 44.4167 115.949 39.2955 117.884C34.1742 119.818 30.1364 121.37 27.1818 122.541C24.2273 123.712 20.9527 125.111 17.358 126.74C13.7633 128.369 10.858 130.023 8.64205 131.703C6.42614 133.382 4.72727 135.088 3.54545 136.818C1.18182 143.333 0 169.394 0 215H208C208 203.598 207.729 188.736 207.187 170.412C206.646 152.088 205.735 140.89 204.455 136.818C203.273 135.088 201.574 133.382 199.358 131.703C197.142 130.023 194.237 128.369 190.642 126.74C187.047 125.111 183.773 123.712 180.818 122.541C177.864 121.37 173.826 119.818 168.705 117.884C163.583 115.949 159.545 114.422 156.591 113.303C154.03 112.285 151.544 111.114 149.131 109.79C146.718 108.467 145.167 107.653 144.477 107.347C143.788 108.263 143.222 113.023 142.778 121.625C142.335 130.227 141.646 140.025 140.71 151.019C139.775 162.013 138.519 170.259 136.943 175.756C136.254 178.2 134.801 180.108 132.585 181.483C130.369 182.857 128.277 183.799 126.307 184.308C124.337 184.817 123.303 185.224 123.205 185.529C117.098 154.684 112.716 136.36 110.057 130.558C113.504 126.384 117.098 121.396 120.841 115.593C120.053 114.982 117.172 113.557 112.199 111.317C107.225 109.078 104.492 107.805 104 107.5ZM104 0C117.788 0 129.36 5.24266 138.716 15.728C141.375 14.4046 144.379 14.2519 147.727 15.2699C149.008 15.4735 150.436 15.5244 152.011 15.4226C153.587 15.3208 155.089 15.1935 156.517 15.0408C157.945 14.8881 159.348 15.6007 160.727 17.1786C162.106 18.7565 163.239 21.3269 164.125 24.8899C164.519 26.5187 164.839 28.0202 165.085 29.3945C165.331 30.7688 165.405 32.0668 165.307 33.2884C165.208 34.5099 165.159 35.5279 165.159 36.3423C165.159 37.1567 164.938 38.0729 164.494 39.0909C164.051 40.1089 163.78 40.8469 163.682 41.305C163.583 41.7631 163.14 42.4757 162.352 43.4428C161.564 44.4099 161.097 44.9953 160.949 45.1989C160.801 45.4025 160.259 46.0133 159.324 47.0312C158.388 48.0492 157.871 48.6091 157.773 48.7109C157.28 51.2559 156.222 53.4955 154.597 55.4297C152.972 57.3639 151.568 58.331 150.386 58.331C148.22 69.6307 142.803 79.0217 134.136 86.5039C125.47 93.9861 115.424 97.7273 104 97.7273C92.5758 97.7273 82.5303 93.9861 73.8636 86.5039C65.197 79.0217 59.7803 69.6307 57.6136 58.331C56.4318 58.331 55.0284 57.3639 53.4034 55.4297C51.7784 53.4955 50.7197 51.2559 50.2273 48.7109C50.1288 48.6091 49.6117 48.0492 48.6761 47.0312C47.7405 46.0133 47.1989 45.4025 47.0511 45.1989C46.9034 44.9953 46.4356 44.4099 45.6477 43.4428C44.8598 42.4757 44.4167 41.7631 44.3182 41.305C44.2197 40.8469 43.9489 40.1089 43.5057 39.0909C43.0625 38.0729 42.8409 37.1567 42.8409 36.3423C42.8409 35.5279 42.7917 34.5099 42.6932 33.2884C42.5947 32.0668 42.6686 30.7688 42.9148 29.3945C43.161 28.0202 43.4811 26.5187 43.875 24.8899C44.7614 21.3269 45.8939 18.7565 47.2727 17.1786C48.6515 15.6007 50.0549 14.8881 51.483 15.0408C52.911 15.1935 54.4129 15.3208 55.9886 15.4226C57.5644 15.5244 58.9924 15.4735 60.2727 15.2699C63.6212 14.2519 66.625 14.4046 69.2841 15.728C78.6401 5.24266 90.2121 0 104 0ZM97.0568 34.2045C97.6477 34.2045 98.1648 34.4336 98.6079 34.8917C99.0511 35.3498 99.2727 35.8842 99.2727 36.495V40.6179C101.242 40.4143 102.818 40.3125 104 40.3125C105.182 40.3125 106.758 40.4143 108.727 40.6179V36.495C108.727 35.8842 108.949 35.3498 109.392 34.8917C109.835 34.4336 110.352 34.2045 110.943 34.2045H132.364C130.492 30.7434 129.655 28.3511 129.852 27.0277C129.951 26.0097 130.123 25.2971 130.369 24.8899C130.616 24.4827 130.886 24.2282 131.182 24.1264C131.477 24.0246 131.97 23.7956 132.659 23.4393C133.348 23.083 133.989 22.5994 134.58 21.9886C126.602 12.2159 116.409 7.32955 104 7.32955C91.5909 7.32955 81.3977 12.2159 73.4204 21.9886C74.0114 22.5994 74.6515 23.083 75.3409 23.4393C76.0303 23.7956 76.5227 24.0246 76.8182 24.1264C77.1136 24.2282 77.3845 24.4827 77.6307 24.8899C77.8769 25.2971 78.0492 26.0097 78.1477 27.0277C78.3447 28.3511 77.5076 30.7434 75.6364 34.2045H97.0568ZM70.9091 40.4652C69.9242 40.9742 67.7083 41.8904 64.2614 43.2138C63.9659 45.0462 63.8182 46.9295 63.8182 48.8636C63.8182 60.2651 67.7576 70.0379 75.6364 78.1818C83.5151 86.3258 92.9697 90.3977 104 90.3977C115.03 90.3977 124.485 86.3258 132.364 78.1818C140.242 70.0379 144.182 60.2651 144.182 48.8636C144.182 46.9295 144.034 45.0462 143.739 43.2138C140.292 41.8904 138.076 40.9742 137.091 40.4652V56.3459C137.091 56.9567 136.869 57.4911 136.426 57.9492C135.983 58.4073 135.466 58.6364 134.875 58.6364H110.943C110.352 58.6364 109.835 58.4073 109.392 57.9492C108.949 57.4911 108.727 56.9567 108.727 56.3459V46.7258C107.25 46.4205 105.674 46.2678 104 46.2678C102.326 46.2678 100.75 46.4205 99.2727 46.7258V56.3459C99.2727 56.9567 99.0511 57.4911 98.6079 57.9492C98.1648 58.4073 97.6477 58.6364 97.0568 58.6364H73.125C72.5341 58.6364 72.017 58.4073 71.5739 57.9492C71.1307 57.4911 70.9091 56.9567 70.9091 56.3459V40.4652ZM129.409 39.0909H116.409C115.621 39.0909 114.932 39.3963 114.341 40.0071C113.75 40.6179 113.455 41.3305 113.455 42.1449V50.696C113.455 51.5104 113.75 52.223 114.341 52.8338C114.932 53.4446 115.621 53.75 116.409 53.75H129.409C130.197 53.75 130.886 53.4446 131.477 52.8338C132.068 52.223 132.364 51.5104 132.364 50.696V42.1449C132.364 41.3305 132.068 40.6179 131.477 40.0071C130.886 39.3963 130.197 39.0909 129.409 39.0909ZM78.5909 39.0909C77.803 39.0909 77.1136 39.3963 76.5227 40.0071C75.9318 40.6179 75.6364 41.3305 75.6364 42.1449V50.696C75.6364 51.5104 75.9318 52.223 76.5227 52.8338C77.1136 53.4446 77.803 53.75 78.5909 53.75H91.5909C92.3788 53.75 93.0682 53.4446 93.6591 52.8338C94.25 52.223 94.5454 51.5104 94.5454 50.696V42.1449C94.5454 41.3305 94.25 40.6179 93.6591 40.0071C93.0682 39.3963 92.3788 39.0909 91.5909 39.0909H78.5909Z" fill="#2E3341"/>
</svg>
